<svg width="1602" height="1405" xmlns="http://www.w3.org/2000/svg" xmlns:xlink="http://www.w3.org/1999/xlink" xml:space="preserve" overflow="hidden"><defs><clipPath id="clip0"><rect x="1265" y="99" width="1602" height="1405"/></clipPath></defs><g clip-path="url(#clip0)" transform="translate(-1265 -99)"><path d="M1972.17 464.408 2048 555.632 1963.3 555.632 1963.3 801 1775.47 801 1775.47 555.632 1690.77 555.632 1713.34 528.48 1721.47 531.847C1730.58 534.157 1740.41 535.312 1750.97 535.312 1766.58 535.312 1780 531.517 1791.22 523.926 1802.44 516.335 1810.03 507.368 1813.99 497.027 1818.17 507.368 1825.87 516.335 1837.09 523.926 1848.31 531.517 1861.62 535.312 1877.02 535.312 1898.14 535.312 1916.34 530.692 1931.63 521.45 1946.92 512.209 1958.64 498.842 1966.78 481.35ZM1869.38 340.754 1901.44 379.316 1901.44 431.348C1901.44 441.69 1899.29 449.721 1895 455.441 1890.71 461.162 1884.72 464.022 1877.02 464.022 1869.32 464.022 1863.33 461.162 1859.04 455.441 1854.75 449.721 1852.6 441.69 1852.6 431.348L1852.6 360.945ZM1901.44 299 1978.99 299 1978.99 418.806C1978.99 430.908 1977.97 442.171 1975.93 452.595L1972.17 464.408 1901.44 379.316ZM1649 299 1726.88 299 1727.21 431.348C1727.21 441.469 1729.3 449.445 1733.48 455.276 1737.66 461.107 1743.49 464.022 1750.97 464.022 1758.45 464.022 1764.33 461.162 1768.62 455.441 1772.91 449.721 1775.05 441.69 1775.05 431.348L1775.05 299 1852.6 299 1852.6 360.945 1713.34 528.48 1696.35 521.45C1681.06 512.209 1669.35 498.842 1661.21 481.35 1653.07 463.858 1649 443.01 1649 418.806Z" fill-rule="evenodd"/><rect x="1691" y="902" width="386" height="95.9999"/><text font-family="1,1_MSFontService,sans-serif" font-weight="900" font-size="633" transform="matrix(1 0 0 1 2023.64 998)">P<tspan font-size="330" x="11.9712" y="-469">AY</tspan></text><text font-family="1,1_MSFontService,sans-serif" font-weight="900" font-size="275" transform="matrix(-1.83697e-16 -1 1 -1.83697e-16 1622.75 1008)">THIS</text></g></svg>