<?xml version="1.0" encoding="UTF-8"?><svg xmlns="http://www.w3.org/2000/svg" viewBox="0 0 1014.37 86.66"><defs><style>.d{fill:#efefef;}.e{fill:#1e1e1e;}</style></defs><g id="a"/><g id="b"><g id="c"><polygon class="e" points="2.62 3.45 0 29.67 86.76 29.67 86.76 2.3 2.62 3.45"/><polygon class="e" points="0 33.44 1.31 58.19 85.51 58.19 86.76 34.94 0 33.44"/><polygon class="e" points="1.64 61.8 1.64 86.66 86.76 83.9 88.77 61.8 1.64 61.8"/><path class="d" d="M160.65,81.69l-50.37-.51,.31-79.75,28.56-.31-.41,58.35,22.52,.31-.61,21.91Z"/><path class="d" d="M174.68,81.69l-2.15-78.83,58.86-1.33,.51,20.47-31.12,.51,.51,11.36,28.87-.51,.2,17.2-28.36,.41,.51,11.77,29.58-1.02,.31,18.53-57.74,1.43Z"/><path class="d" d="M294.46,82.51l-4.2-13.82-23.44,.51-3.89,13.1-29.18-2.25L263.95,1.33l30.3-.21,31.94,79.54-31.74,1.84Zm-16.17-54.36l-6.76,21.91,13.21-.2-6.45-21.7Z"/><path class="d" d="M365.71,81.18c-10.95,0-26.62-.41-33.17-.72l-.92-78.62h32.76c28.56,0,45.66,13.1,45.66,41.56,0,26.41-16.79,37.78-44.33,37.78Zm2.05-55.28c-3.69,0-6.35,.1-8.6,.31l.72,31.33c2.76,.2,5.12,.41,8.5,.41,9.21,0,14.33-6.35,14.33-15.56,0-9.83-5.53-16.48-14.95-16.48Z"/><path class="d" d="M422.74,81.69l-2.15-78.83,58.86-1.33,.51,20.47-31.12,.51,.51,11.36,28.87-.51,.2,17.2-28.36,.41,.51,11.77,29.58-1.02,.31,18.53-57.74,1.43Z"/><path class="d" d="M540.98,82.51l-14.33-24.36c-2.05,0-4.4-.1-6.04-.2l.31,23.65-27.74-.31-1.54-79.75c9.52-.41,23.96-.82,38.59-.82,22.93,0,35.83,10.75,35.83,29.18,0,11.57-5.53,18.12-12.9,22.01l19.25,27.03-31.43,3.58Zm-12.08-60.71c-2.97,0-6.86,.2-9.52,.31l.61,18.22c2.97,.1,6.45,.2,9.62,.1,6.45-.2,9.93-3.17,9.93-9.11s-3.89-9.52-10.65-9.52Z"/><path class="d" d="M624.52,82.31c-15.97,0-32.76-.82-44.33-1.43l-.92-79.34c10.95-.61,28.36-1.54,44.22-1.54,19.45,0,31.84,7.47,31.84,23.34,0,9.52-4.5,16.07-12.9,19.35,8.09,2.35,14.02,7.88,14.02,16.89,0,15.25-11.47,22.73-31.94,22.73Zm-6.35-64.7c-3.48,0-7.27,.2-10.13,.41l.31,15.87c2.87,.21,6.86,.31,10.44,.31,5.22,0,8.8-3.17,8.8-8.6,0-4.71-2.76-7.98-9.42-7.98Zm.61,32.55c-3.99-.1-7.17-.21-10.65-.1l.41,15.15c3.69,.31,7.27,.61,11.06,.61,5.12,0,8.5-2.87,8.5-7.78s-3.58-7.78-9.32-7.88Z"/><path class="d" d="M706.93,82.51c-26,0-42.38-16.69-42.38-41.77,0-23.14,17.5-40.54,43.61-40.54s42.89,16.17,42.89,39.82c0,25.8-15.56,42.48-44.12,42.48Zm.72-58.04c-10.24,0-16.79,7.06-16.79,17.1s6.55,17.1,16.69,17.1,16.69-7.37,16.69-17.2-6.65-16.99-16.58-16.99Z"/><path class="d" d="M811.56,82.51l-4.2-13.82-23.44,.51-3.89,13.1-29.18-2.25L781.05,1.33l30.3-.21,31.94,79.54-31.74,1.84Zm-16.17-54.36l-6.76,21.91,13.21-.2-6.45-21.7Z"/><path class="d" d="M897.66,82.51l-14.33-24.36c-2.05,0-4.4-.1-6.04-.2l.31,23.65-27.74-.31-1.54-79.75c9.52-.41,23.96-.82,38.59-.82,22.93,0,35.83,10.75,35.83,29.18,0,11.57-5.53,18.12-12.9,22.01l19.25,27.03-31.43,3.58Zm-12.08-60.71c-2.97,0-6.86,.2-9.52,.31l.61,18.22c2.97,.1,6.45,.2,9.62,.1,6.45-.2,9.93-3.17,9.93-9.11s-3.89-9.52-10.65-9.52Z"/><path class="d" d="M970.04,81.18c-10.95,0-26.62-.41-33.17-.72l-.92-78.62h32.76c28.56,0,45.66,13.1,45.66,41.56,0,26.41-16.79,37.78-44.33,37.78Zm2.05-55.28c-3.69,0-6.35,.1-8.6,.31l.72,31.33c2.76,.2,5.12,.41,8.5,.41,9.21,0,14.33-6.35,14.33-15.56,0-9.83-5.53-16.48-14.95-16.48Z"/></g></g></svg>