<?xml version="1.0" encoding="UTF-8" standalone="no"?><svg xmlns:svg="http://www.w3.org/2000/svg" xmlns="http://www.w3.org/2000/svg" xmlns:xlink="http://www.w3.org/1999/xlink" version="1.0" width="64px" height="64px" viewBox="0 0 128 128" xml:space="preserve"><g><path d="M70.1 9.42l-10.7 9.4v-5.77a50.82 50.82 0 0 0-43.7 68.23L11 79.7l-1.5 5.53A58 58 0 0 1 59.4 5.8V0z" fill="#000000"/><path d="M70.1 9.42l-10.7 9.4v-5.77a50.82 50.82 0 0 0-43.7 68.23L11 79.7l-1.5 5.53A58 58 0 0 1 59.4 5.8V0z" fill="#000000" transform="rotate(120 64 64)"/><path d="M70.1 9.42l-10.7 9.4v-5.77a50.82 50.82 0 0 0-43.7 68.23L11 79.7l-1.5 5.53A58 58 0 0 1 59.4 5.8V0z" fill="#000000" transform="rotate(240 64 64)"/><animateTransform attributeName="transform" type="rotate" from="0 64 64" to="120 64 64" dur="960ms" repeatCount="indefinite"></animateTransform></g></svg>