<svg width="1307" height="1307" xmlns="http://www.w3.org/2000/svg" xmlns:xlink="http://www.w3.org/1999/xlink" xml:space="preserve" overflow="hidden"><defs><clipPath id="clip0"><rect x="893" y="473" width="1307" height="1307"/></clipPath></defs><g clip-path="url(#clip0)" transform="translate(-893 -473)"><path d="M1355 809.699 1533.5 595 1712 809.699 1627.36 809.699 1627.36 1055 1439.64 1055 1439.64 809.699Z" fill="#800000" fill-rule="evenodd"/><rect x="1355" y="1152" width="386" height="96.9999" fill="#800000"/><path d="M1636.4 1537.09 1636.4 1586.77 1656.65 1586.77C1662.67 1586.77 1667.4 1584.57 1670.85 1580.17 1674.3 1575.78 1676.03 1569.77 1676.03 1562.15 1676.03 1554.23 1674.3 1548.08 1670.85 1543.68 1667.4 1539.28 1662.67 1537.09 1656.65 1537.09ZM1412.44 1501.25 1464.4 1501.25 1464.4 1581.27C1464.4 1590.65 1466.56 1597.98 1470.89 1603.26 1475.22 1608.53 1481.2 1611.17 1488.84 1611.17 1496.47 1611.17 1502.45 1608.53 1506.78 1603.26 1511.11 1597.98 1513.27 1590.65 1513.27 1581.27L1513.27 1501.25 1565.23 1501.25 1565.23 1581.27C1565.23 1597.25 1562.19 1610.99 1556.1 1622.49 1550 1634 1541.23 1642.79 1529.79 1648.88 1518.34 1654.96 1504.69 1658 1488.84 1658 1472.99 1658 1459.34 1654.96 1447.89 1648.88 1436.44 1642.79 1427.67 1634 1421.58 1622.49 1415.49 1610.99 1412.44 1597.25 1412.44 1581.27ZM1584.44 1500.59 1675.15 1500.59C1691.73 1500.59 1704.68 1506.01 1714 1516.86 1723.32 1527.7 1727.98 1542.8 1727.98 1562.15 1727.98 1581.35 1723.32 1596.33 1714 1607.11 1704.68 1617.88 1691.73 1623.26 1675.15 1623.26L1636.4 1623.26 1636.4 1654.48 1584.44 1654.48ZM1806.45 1382.61C1800.73 1382.61 1796.24 1384.59 1793 1388.55 1789.75 1392.51 1788.12 1398 1788.12 1405.04L1788.12 1417.57 1824.78 1417.57 1824.78 1405.04C1824.78 1398 1823.16 1392.51 1819.91 1388.55 1816.66 1384.59 1812.18 1382.61 1806.45 1382.61ZM1876.44 1349.64 1915.4 1349.64 1935.22 1393.83 1955.03 1349.64 1994 1349.64 1954.7 1424 1954.7 1465.06 1915.73 1465.06 1915.73 1424ZM1570.28 1349.64 1609.25 1349.64 1609.41 1415.76C1609.41 1420.81 1610.46 1424.8 1612.55 1427.71 1614.64 1430.62 1617.56 1432.08 1621.3 1432.08 1625.04 1432.08 1627.99 1430.65 1630.13 1427.79 1632.28 1424.94 1633.35 1420.92 1633.35 1415.76L1633.35 1349.64 1672.16 1349.64 1672.16 1415.76C1672.16 1420.92 1673.23 1424.94 1675.38 1427.79 1677.52 1430.65 1680.52 1432.08 1684.37 1432.08 1688.23 1432.08 1691.23 1430.65 1693.37 1427.79 1695.52 1424.94 1696.59 1420.92 1696.59 1415.76L1696.59 1349.64 1735.4 1349.64 1735.4 1409.49C1735.4 1421.58 1733.36 1432 1729.29 1440.74 1725.21 1449.48 1719.35 1456.15 1711.7 1460.77 1704.05 1465.39 1694.94 1467.69 1684.37 1467.69 1676.67 1467.69 1670.01 1465.8 1664.39 1462.01 1658.78 1458.21 1654.93 1453.73 1652.84 1448.57 1650.86 1453.73 1647.06 1458.21 1641.44 1462.01 1635.83 1465.8 1629.11 1467.69 1621.3 1467.69 1610.73 1467.69 1601.62 1465.39 1593.97 1460.77 1586.32 1456.15 1580.46 1449.48 1576.39 1440.74 1572.31 1432 1570.28 1421.58 1570.28 1409.49ZM1353.56 1349.64 1392.53 1349.64 1392.53 1465.06 1353.56 1465.06ZM1226.28 1349.64 1265.25 1349.64 1265.25 1392.84 1300.75 1392.84 1300.75 1349.64 1339.72 1349.64 1339.72 1465.06 1300.75 1465.06 1300.75 1421.86 1265.25 1421.86 1265.25 1465.06 1226.28 1465.06ZM1099 1349.64 1212.44 1349.64 1212.44 1378.66 1175.29 1378.66 1175.29 1465.06 1136.32 1465.06 1136.32 1378.66 1099 1378.66ZM1806.45 1347.49C1818.34 1347.49 1828.58 1349.78 1837.16 1354.34 1845.75 1358.9 1852.33 1365.49 1856.9 1374.12 1861.46 1382.75 1863.75 1393.06 1863.75 1405.04L1863.75 1465.06 1824.78 1465.06 1824.78 1446.59 1788.12 1446.59 1788.12 1465.06 1749.16 1465.06 1749.16 1405.04C1749.16 1393.06 1751.44 1382.75 1756.01 1374.12 1760.58 1365.49 1767.15 1358.9 1775.74 1354.34 1784.33 1349.78 1794.56 1347.49 1806.45 1347.49ZM1460.47 1347C1478.09 1347 1491.82 1350.96 1501.67 1358.87 1511.52 1366.79 1516.45 1377.83 1516.45 1392.01L1477.48 1392.01C1477.48 1386.52 1475.91 1382.2 1472.77 1379.07 1469.64 1375.94 1465.26 1374.37 1459.65 1374.37 1453.37 1374.37 1448.89 1375.28 1446.19 1377.09 1443.49 1378.91 1442.14 1381.24 1442.14 1384.1 1442.14 1386.85 1443.36 1388.99 1445.78 1390.53 1448.2 1392.07 1451.25 1393.19 1454.94 1393.91 1458.63 1394.62 1463.72 1395.31 1470.22 1395.97 1480.12 1397.07 1488.21 1398.39 1494.49 1399.93 1500.76 1401.47 1506.18 1404.3 1510.75 1408.42 1515.32 1412.54 1517.6 1418.39 1517.6 1425.98 1517.6 1439.06 1512.62 1449.28 1502.66 1456.65 1492.7 1464.01 1478.86 1467.69 1461.13 1467.69 1443.52 1467.69 1429.79 1464.01 1419.94 1456.65 1410.08 1449.28 1405.16 1439.06 1405.16 1425.98L1444.13 1425.98C1444.13 1430.49 1445.61 1434 1448.58 1436.53 1451.56 1439.06 1455.74 1440.32 1461.13 1440.32 1466.64 1440.32 1470.93 1439.44 1474.01 1437.69 1477.09 1435.93 1478.64 1433.51 1478.64 1430.43 1478.64 1427.35 1476.85 1425.29 1473.27 1424.25 1469.69 1423.2 1463.94 1422.35 1456.01 1421.69 1445.78 1420.81 1437.27 1419.52 1430.5 1417.82 1423.73 1416.11 1417.82 1412.51 1412.75 1407.02 1407.69 1401.52 1405.16 1393.39 1405.16 1382.61 1405.16 1371.4 1410.03 1362.66 1419.77 1356.4 1429.51 1350.13 1443.08 1347 1460.47 1347Z" fill="#800000" fill-rule="evenodd"/></g></svg>