<svg width="1382" height="708" xmlns="http://www.w3.org/2000/svg" xmlns:xlink="http://www.w3.org/1999/xlink" xml:space="preserve" overflow="hidden"><defs><clipPath id="clip0"><rect x="1590" y="1398" width="1382" height="708"/></clipPath></defs><g clip-path="url(#clip0)" transform="translate(-1590 -1398)"><path d="M1807 1660.7 1985.5 1446 2164 1660.7 2079.36 1660.7 2079.36 1938 1891.64 1938 1891.64 1660.7Z" fill="#FFFFFF" fill-rule="evenodd"/><path d="M1594.4 1912.26 1642.78 1912.26 1642.78 1974.07 1786.82 1974.07 1786.82 2038.91 1642.78 2038.91 1642.78 2101 1594.4 2101ZM1594.4 1702.77 1786.82 1702.77 1786.82 1767.61 1714.8 1767.61 1714.8 1826.67 1786.82 1826.67 1786.82 1891.51 1594.4 1891.51 1594.4 1826.67 1666.42 1826.67 1666.42 1767.61 1594.4 1767.61ZM1594.4 1617.19 1786.82 1617.19 1786.82 1682.03 1594.4 1682.03ZM2597.34 1468.22C2585.9 1468.22 2576.94 1472.18 2570.45 1480.09 2563.97 1488 2560.72 1498.99 2560.72 1513.06L2560.72 1538.12 2633.95 1538.12 2633.95 1513.06C2633.95 1498.99 2630.71 1488 2624.22 1480.09 2617.73 1472.18 2608.77 1468.22 2597.34 1468.22ZM1721.67 1409.07C1743.48 1409.07 1760.52 1417.36 1772.8 1433.94 1785.07 1450.51 1791.21 1473.55 1791.21 1503.03 1791.21 1532.34 1785.07 1555.19 1772.8 1571.58 1760.52 1587.97 1743.48 1596.17 1721.67 1596.17L1721.67 1531.33C1729.18 1531.33 1735.05 1528.86 1739.26 1523.91 1743.48 1518.97 1745.58 1512.01 1745.58 1503.03 1745.58 1493.88 1744.12 1486.73 1741.18 1481.6 1738.25 1476.48 1734.22 1473.91 1729.09 1473.91 1723.96 1473.91 1720.52 1476.89 1718.78 1482.84 1717.04 1488.79 1715.62 1498.36 1714.52 1511.55 1713.06 1528.58 1710.9 1542.73 1708.06 1554 1705.22 1565.26 1699.22 1575.11 1690.06 1583.53 1680.89 1591.96 1667.33 1596.17 1649.37 1596.17 1630.68 1596.17 1616.11 1588.07 1605.67 1571.86 1595.22 1555.65 1590 1533.07 1590 1504.13 1590 1474.83 1596.6 1451.98 1609.79 1435.59 1622.99 1419.19 1641.4 1411 1665.04 1411L1665.04 1475.84C1655.88 1475.84 1648.69 1478.45 1643.46 1483.67 1638.24 1488.89 1635.63 1496.17 1635.63 1505.51 1635.63 1515.95 1637.14 1523.41 1640.17 1527.9 1643.19 1532.39 1647.08 1534.63 1651.85 1534.63 1656.43 1534.63 1660 1532.61 1662.57 1528.58 1665.13 1524.56 1667.01 1519.47 1668.2 1513.34 1669.39 1507.2 1670.54 1498.73 1671.64 1487.92 1673.47 1471.44 1675.67 1457.98 1678.24 1447.54 1680.8 1437.1 1685.52 1428.08 1692.39 1420.48 1699.27 1412.87 1709.02 1409.07 1721.67 1409.07ZM2737.14 1402.29 2814.99 1402.29 2854.57 1490.64 2894.15 1402.29 2972 1402.29 2893.49 1550.97 2893.49 1633.07 2815.65 1633.07 2815.65 1550.97ZM2125.53 1402.29 2203.38 1402.29 2203.71 1534.49C2203.71 1544.6 2205.79 1552.57 2209.97 1558.39 2214.15 1564.22 2219.98 1567.13 2227.46 1567.13 2234.93 1567.13 2240.81 1564.27 2245.1 1558.56 2249.39 1552.84 2251.53 1544.82 2251.53 1534.49L2251.53 1402.29 2329.05 1402.29 2329.05 1534.49C2329.05 1544.82 2331.2 1552.84 2335.48 1558.56 2339.77 1564.27 2345.76 1567.13 2353.46 1567.13 2361.16 1567.13 2367.15 1564.27 2371.44 1558.56 2375.73 1552.84 2377.87 1544.82 2377.87 1534.49L2377.87 1402.29 2455.39 1402.29 2455.39 1521.96C2455.39 1546.14 2451.32 1566.96 2443.18 1584.44 2435.05 1601.91 2423.34 1615.26 2408.05 1624.49 2392.77 1633.72 2374.57 1638.34 2353.46 1638.34 2338.07 1638.34 2324.76 1634.55 2313.55 1626.97 2302.33 1619.38 2294.64 1610.43 2290.46 1600.1 2286.5 1610.43 2278.91 1619.38 2267.7 1626.97 2256.48 1634.55 2243.07 1638.34 2227.46 1638.34 2206.34 1638.34 2188.15 1633.72 2172.86 1624.49 2157.58 1615.26 2145.87 1601.91 2137.73 1584.44 2129.6 1566.96 2125.53 1546.14 2125.53 1521.96ZM2597.34 1398C2621.09 1398 2641.54 1402.56 2658.69 1411.68 2675.84 1420.8 2688.98 1433.99 2698.11 1451.24 2707.23 1468.5 2711.8 1489.1 2711.8 1513.06L2711.8 1633.07 2633.95 1633.07 2633.95 1596.14 2560.72 1596.14 2560.72 1633.07 2482.88 1633.07 2482.88 1513.06C2482.88 1489.1 2487.44 1468.5 2496.56 1451.24 2505.69 1433.99 2518.83 1420.8 2535.98 1411.68 2553.14 1402.56 2573.59 1398 2597.34 1398Z" fill="#FFFFFF" fill-rule="evenodd"/><path d="M2312.02 1768.05 2312.02 1911.06 2370.18 1911.06C2387.46 1911.06 2401.05 1904.73 2410.95 1892.08 2420.86 1879.42 2425.81 1862.12 2425.81 1840.19 2425.81 1817.4 2420.86 1799.69 2410.95 1787.03 2401.05 1774.37 2387.46 1768.05 2370.18 1768.05L2312.02 1768.05ZM2162.83 1663 2423.28 1663C2470.9 1663 2508.1 1678.61 2534.86 1709.83 2561.62 1741.05 2575 1784.5 2575 1840.19 2575 1895.45 2561.62 1938.59 2534.86 1969.59 2508.1 2000.6 2470.9 2016.11 2423.28 2016.11L2312.02 2016.11 2312.02 2105.96 1805 2106 1805 2009.93 2162.83 2009.93 2162.83 1663Z" fill="#FFFFFF" fill-rule="evenodd"/></g></svg>