<svg width="1383" height="708" xmlns="http://www.w3.org/2000/svg" xmlns:xlink="http://www.w3.org/1999/xlink" xml:space="preserve" overflow="hidden"><defs><clipPath id="clip0"><rect x="484" y="1439" width="1383" height="708"/></clipPath></defs><g clip-path="url(#clip0)" transform="translate(-484 -1439)"><path d="M701 1702.7 879.5 1488 1058 1702.7 973.357 1702.7 973.357 1980 785.643 1980 785.643 1702.7Z" fill-rule="evenodd"/><path d="M488.401 1953.99 536.815 1953.99 536.815 2015.89 680.958 2015.89 680.958 2080.82 536.815 2080.82 536.815 2143 488.401 2143ZM488.401 1744.2 680.958 1744.2 680.958 1809.13 608.887 1809.13 608.887 1868.28 680.958 1868.28 680.958 1933.21 488.401 1933.21 488.401 1868.28 560.472 1868.28 560.472 1809.13 488.401 1809.13ZM488.401 1658.5 680.958 1658.5 680.958 1723.43 488.401 1723.43ZM1492.06 1509.32C1480.62 1509.32 1471.65 1513.28 1465.16 1521.21 1458.67 1529.13 1455.42 1540.14 1455.42 1554.22L1455.42 1579.32 1528.71 1579.32 1528.71 1554.22C1528.71 1540.14 1525.46 1529.13 1518.97 1521.21 1512.48 1513.28 1503.51 1509.32 1492.06 1509.32ZM615.764 1450.09C637.587 1450.09 654.642 1458.39 666.929 1474.99 679.216 1491.59 685.359 1514.65 685.359 1544.18 685.359 1573.53 679.216 1596.41 666.929 1612.83 654.642 1629.24 637.587 1637.45 615.764 1637.45L615.764 1572.52C623.283 1572.52 629.151 1570.05 633.369 1565.09 637.587 1560.14 639.696 1553.17 639.696 1544.18 639.696 1535.01 638.229 1527.86 635.294 1522.72 632.36 1517.59 628.326 1515.02 623.191 1515.02 618.056 1515.02 614.617 1518 612.875 1523.96 611.133 1529.92 609.712 1539.51 608.612 1552.71 607.144 1569.77 604.99 1583.94 602.147 1595.22 599.305 1606.5 593.299 1616.36 584.129 1624.8 574.96 1633.23 561.389 1637.45 543.417 1637.45 524.712 1637.45 510.133 1629.34 499.68 1613.1 489.227 1596.87 484 1574.26 484 1545.28 484 1515.94 490.602 1493.06 503.806 1476.64 517.01 1460.22 535.44 1452.02 559.097 1452.02L559.097 1516.95C549.928 1516.95 542.73 1519.56 537.503 1524.79 532.277 1530.01 529.663 1537.31 529.663 1546.66 529.663 1557.11 531.176 1564.59 534.202 1569.08 537.228 1573.58 541.125 1575.82 545.893 1575.82 550.478 1575.82 554.054 1573.81 556.621 1569.77 559.189 1565.74 561.068 1560.65 562.26 1554.5 563.453 1548.36 564.599 1539.87 565.699 1529.05 567.533 1512.54 569.734 1499.06 572.301 1488.61 574.868 1478.15 579.591 1469.12 586.468 1461.51 593.345 1453.9 603.11 1450.09 615.764 1450.09ZM1631.97 1443.29 1709.87 1443.29 1749.49 1531.77 1789.1 1443.29 1867 1443.29 1788.44 1592.19 1788.44 1674.4 1710.53 1674.4 1710.53 1592.19ZM1019.92 1443.29 1097.82 1443.29 1098.15 1575.68C1098.15 1585.81 1100.24 1593.79 1104.42 1599.62 1108.6 1605.45 1114.43 1608.37 1121.92 1608.37 1129.4 1608.37 1135.29 1605.51 1139.58 1599.78 1143.87 1594.06 1146.01 1586.03 1146.01 1575.68L1146.01 1443.29 1223.59 1443.29 1223.59 1575.68C1223.59 1586.03 1225.73 1594.06 1230.02 1599.78 1234.31 1605.51 1240.31 1608.37 1248.01 1608.37 1255.72 1608.37 1261.71 1605.51 1266 1599.78 1270.29 1594.06 1272.44 1586.03 1272.44 1575.68L1272.44 1443.29 1350.01 1443.29 1350.01 1563.14C1350.01 1587.35 1345.94 1608.2 1337.8 1625.7 1329.66 1643.2 1317.94 1656.57 1302.64 1665.82 1287.35 1675.06 1269.14 1679.68 1248.01 1679.68 1232.61 1679.68 1219.29 1675.89 1208.07 1668.29 1196.85 1660.7 1189.15 1651.73 1184.96 1641.38 1181 1651.73 1173.41 1660.7 1162.19 1668.29 1150.96 1675.89 1137.54 1679.68 1121.92 1679.68 1100.79 1679.68 1082.58 1675.06 1067.29 1665.82 1051.99 1656.57 1040.27 1643.2 1032.13 1625.7 1023.99 1608.2 1019.92 1587.35 1019.92 1563.14ZM1492.06 1439C1515.83 1439 1536.3 1443.57 1553.46 1452.7 1570.63 1461.84 1583.78 1475.04 1592.91 1492.32 1602.04 1509.6 1606.61 1530.23 1606.61 1554.22L1606.61 1674.4 1528.71 1674.4 1528.71 1637.42 1455.42 1637.42 1455.42 1674.4 1377.52 1674.4 1377.52 1554.22C1377.52 1530.23 1382.09 1509.6 1391.22 1492.32 1400.35 1475.04 1413.5 1461.84 1430.67 1452.7 1447.83 1443.57 1468.3 1439 1492.06 1439Z" fill-rule="evenodd"/><path d="M1206.68 1809.05 1206.68 1952.06 1264.91 1952.06C1282.22 1952.06 1295.82 1945.73 1305.74 1933.08 1315.66 1920.42 1320.62 1903.12 1320.62 1881.19 1320.62 1858.4 1315.66 1840.69 1305.74 1828.03 1295.82 1815.37 1282.22 1809.05 1264.91 1809.05L1206.68 1809.05ZM1057.3 1704 1318.08 1704C1365.77 1704 1403.01 1719.61 1429.81 1750.83 1456.6 1782.05 1470 1825.5 1470 1881.19 1470 1936.45 1456.6 1979.59 1429.81 2010.59 1403.01 2041.6 1365.77 2057.11 1318.08 2057.11L1206.68 2057.11 1206.68 2146.96 699 2147 699 2050.93 1057.3 2050.93 1057.3 1704Z" fill-rule="evenodd"/></g></svg>