<svg width="1602" height="1405" xmlns="http://www.w3.org/2000/svg" xmlns:xlink="http://www.w3.org/1999/xlink" xml:space="preserve" overflow="hidden"><defs><clipPath id="clip0"><rect x="1638" y="1" width="1602" height="1405"/></clipPath></defs><g clip-path="url(#clip0)" transform="translate(-1638 -1)"><path d="M2345.17 366.408 2421 457.632 2336.3 457.632 2336.3 703 2148.47 703 2148.47 457.632 2063.77 457.632 2086.34 430.48 2094.47 433.847C2103.58 436.157 2113.41 437.312 2123.97 437.312 2139.58 437.312 2153 433.517 2164.22 425.926 2175.44 418.335 2183.03 409.368 2186.99 399.027 2191.17 409.368 2198.87 418.335 2210.09 425.926 2221.31 433.517 2234.62 437.312 2250.02 437.312 2271.14 437.312 2289.34 432.692 2304.63 423.45 2319.92 414.209 2331.64 400.842 2339.78 383.35ZM2242.38 242.754 2274.44 281.316 2274.44 333.348C2274.44 343.69 2272.29 351.721 2268 357.441 2263.71 363.162 2257.72 366.023 2250.02 366.023 2242.32 366.023 2236.33 363.162 2232.04 357.441 2227.75 351.721 2225.6 343.69 2225.6 333.348L2225.6 262.945ZM2274.44 201 2351.98 201 2351.98 320.806C2351.98 332.908 2350.97 344.171 2348.93 354.595L2345.17 366.408 2274.44 281.316ZM2022 201 2099.88 201 2100.21 333.348C2100.21 343.469 2102.3 351.446 2106.48 357.276 2110.66 363.107 2116.49 366.023 2123.97 366.023 2131.44 366.023 2137.33 363.162 2141.62 357.441 2145.91 351.721 2148.05 343.69 2148.05 333.348L2148.05 201 2225.6 201 2225.6 262.945 2086.34 430.48 2069.35 423.45C2054.06 414.209 2042.35 400.842 2034.21 383.35 2026.07 365.858 2022 345.01 2022 320.806Z" fill-rule="evenodd"/><rect x="2064" y="803" width="386" height="96.9999"/><text font-family="Nura Black,Nura Black_MSFontService,sans-serif" font-weight="900" font-size="633" transform="matrix(1 0 0 1 2396.98 900)">P<tspan font-size="330" x="11.9712" y="-469">AY</tspan></text><text font-family="Nura Black,Nura Black_MSFontService,sans-serif" font-weight="900" font-size="275" transform="matrix(-1.83697e-16 -1 1 -1.83697e-16 1996.08 909)">THIS</text></g></svg>