<?xml version="1.0" encoding="UTF-8"?><svg xmlns="http://www.w3.org/2000/svg" viewBox="0 0 661.77 198.84"><defs><style>.f{fill:#d8d8d8;}.g,.h{isolation:isolate;}.h{fill:#565656;font-family:GrenadineMVB-ExBd, Grenadine MVB;font-size:166.62px;}</style></defs><g id="a"/><g id="b"><g id="c"><g id="d"><g id="e"><g><path d="M43.99,94.2l.46,24.71-22.23,.31-.46-23.78L0,61.13l22.07-2.71,11.23,18.74,11.62-18.74,20.68,1.86-21.61,33.92Z"/><path d="M93.79,120.14c-19.67,0-32.06-12.62-32.06-31.6,0-17.5,13.24-30.67,32.99-30.67s32.45,12.24,32.45,30.13c0,19.52-11.77,32.14-33.38,32.14h0Zm.54-43.91c-7.74,0-12.7,5.34-12.7,12.93s4.96,12.93,12.62,12.93,12.62-5.58,12.62-13.01-5.03-12.86-12.55-12.86h0Z"/><path d="M198.11,89.55c-.31,18.12-9.91,30.28-31.29,30.28s-31.29-11.31-31.52-30.82l-.39-29.74,21.53-.39,.31,28.42c.08,8.05,3.17,12.24,9.68,12.24,7.2,0,10.53-4.1,10.61-11.77l.16-29.12,21.37,.31-.46,30.59h0Z"/></g><g><path d="M473.75,120.3l-39.28-.4,.24-62.19,22.27-.24-.32,45.51,17.56,.24-.48,17.09Z"/><path d="M509.52,120.94c-20.28,0-33.05-13.02-33.05-32.57,0-18.04,13.65-31.62,34.01-31.62s33.45,12.62,33.45,31.06c0,20.12-12.14,33.13-34.41,33.13h0Zm.56-45.26c-7.98,0-13.09,5.51-13.09,13.33s5.11,13.33,13.02,13.33,13.01-5.75,13.01-13.41-5.19-13.25-12.93-13.25h0Z"/><path d="M592.95,79.9c-3.43-5.19-9.66-7.82-15.25-7.82-3.51,0-5.67,2.15-5.67,4.95,0,9.1,33.29,.08,33.29,25.39,0,11.42-8.14,19.32-27.62,19.32-13.33,0-23.47-5.27-28.98-14.85l12.29-7.98c3.99,5.75,10.86,9.1,17.25,9.1,3.51,0,5.83-2.15,5.83-5.03,0-9.5-32.97-1.52-32.97-25.63,0-11.74,9.02-19.8,26.67-19.8,12.93,0,23.31,6.23,28.1,16.13l-12.93,6.23h0Z"/><path d="M616.74,120.3l-1.68-61.47,45.91-1.04,.4,15.97-24.27,.4,.4,8.86,22.51-.4,.16,13.41-22.11,.32,.4,9.18,23.07-.8,.24,14.45-45.03,1.12h0Z"/></g><g><g class="g" transform="translate(96.74 977.13) rotate(-.15) scale(1.03 1)"><text class="h" transform="translate(249.52 148.01) rotate(-.15) scale(1.03 1)"><tspan x="0" y="0">X</tspan></text></g><path class="f" d="M345.87,143.54l-26.87-35.97-25.36,35.05-38.63-3.18,41.15-54.29-41.62-58.95,40.31-5.7,29.27,40.79,28.38-40.53,36.41,3.31-43.52,60.71,42.24,54.64-41.76,4.12h0Z"/></g></g></g></g></g></svg>