<?xml version="1.0" encoding="utf-8"?>
<!-- Generator: Adobe Illustrator 26.1.0, SVG Export Plug-In . SVG Version: 6.00 Build 0)  -->
<svg version="1.1" id="Layer_1" xmlns="http://www.w3.org/2000/svg" xmlns:xlink="http://www.w3.org/1999/xlink" x="0px" y="0px"
	 viewBox="0 0 661.8 198.8" style="enable-background:new 0 0 661.8 198.8;" xml:space="preserve">
<style type="text/css">
	.st0{fill:#565656;}
	.st1{font-family:'GrenadineMVB-ExBd';}
	.st2{font-size:166.62px;}
	.st3{fill:#D8D8D8;}
</style>
<g id="a">
</g>
<g id="b">
	<g id="c">
		<g id="d">
			<g id="e">
				<g>
					<path d="M39.9,94.2l0.5,24.7l-22.2,0.3l-0.5-23.8L-4.1,61.1L18,58.4l11.2,18.7l11.6-18.7l20.7,1.9
						C61.5,60.3,39.9,94.2,39.9,94.2z"/>
					<path d="M89.7,120.1c-19.7,0-32.1-12.6-32.1-31.6c0-17.5,13.2-30.7,33-30.7s32.4,12.2,32.4,30.1
						C123.1,107.5,111.3,120.1,89.7,120.1C89.7,120.1,89.7,120.1,89.7,120.1z M90.2,76.2c-7.7,0-12.7,5.3-12.7,12.9
						s5,12.9,12.6,12.9s12.6-5.6,12.6-13S97.8,76.2,90.2,76.2L90.2,76.2L90.2,76.2z"/>
					<path d="M194,89.6c-0.3,18.1-9.9,30.3-31.3,30.3s-31.3-11.3-31.5-30.8l-0.4-29.7l21.5-0.4l0.3,28.4c0.1,8.1,3.2,12.2,9.7,12.2
						c7.2,0,10.5-4.1,10.6-11.8l0.2-29.1l21.4,0.3L194,89.6L194,89.6L194,89.6z"/>
				</g>
				<g>
					<path d="M469.7,120.3l-39.3-0.4l0.2-62.2l22.3-0.2l-0.3,45.5l17.6,0.2L469.7,120.3L469.7,120.3z"/>
					<path d="M505.4,120.9c-20.3,0-33-13-33-32.6c0-18,13.6-31.6,34-31.6c20.4,0,33.5,12.6,33.5,31.1
						C539.8,107.9,527.7,120.9,505.4,120.9L505.4,120.9z M506,75.7c-8,0-13.1,5.5-13.1,13.3s5.1,13.3,13,13.3c7.9,0,13-5.8,13-13.4
						S513.7,75.7,506,75.7L506,75.7L506,75.7z"/>
					<path d="M588.9,79.9c-3.4-5.2-9.7-7.8-15.2-7.8c-3.5,0-5.7,2.2-5.7,4.9c0,9.1,33.3,0.1,33.3,25.4c0,11.4-8.1,19.3-27.6,19.3
						c-13.3,0-23.5-5.3-29-14.8l12.3-8c4,5.8,10.9,9.1,17.2,9.1c3.5,0,5.8-2.2,5.8-5c0-9.5-33-1.5-33-25.6c0-11.7,9-19.8,26.7-19.8
						c12.9,0,23.3,6.2,28.1,16.1L588.9,79.9L588.9,79.9L588.9,79.9z"/>
					<path d="M612.7,120.3L611,58.8l45.9-1l0.4,16L633,74.2l0.4,8.9l22.5-0.4l0.2,13.4L634,96.3l0.4,9.2l23.1-0.8l0.2,14.4
						L612.7,120.3C612.7,120.3,612.7,120.3,612.7,120.3z"/>
				</g>
				<g>
					<g transform="translate(96.74 977.13) rotate(-.15) scale(1.03 1)">
						<text transform="matrix(1.03 -2.696077e-03 2.617973e-03 1 144.6532 -829.2019)" class="st0 st1 st2">X</text>
					</g>
					<path class="st3" d="M341.8,143.5l-26.9-36l-25.4,35.1l-38.6-3.2l41.1-54.3l-41.6-59l40.3-5.7L320,61.3l28.4-40.5l36.4,3.3
						l-43.5,60.7l42.2,54.6L341.8,143.5L341.8,143.5z"/>
				</g>
			</g>
		</g>
	</g>
</g>
</svg>
