<?xml version="1.0" encoding="utf-8"?>
<!-- Generator: Adobe Illustrator 26.1.0, SVG Export Plug-In . SVG Version: 6.00 Build 0)  -->
<svg version="1.1" id="Layer_1" xmlns="http://www.w3.org/2000/svg" xmlns:xlink="http://www.w3.org/1999/xlink" x="0px" y="0px"
	 viewBox="0 0 661.8 198.8" style="enable-background:new 0 0 661.8 198.8;" xml:space="preserve">
<style type="text/css">
	.st0{opacity:0.39;}
	.st1{enable-background:new    ;}
	.st2{fill:#565656;}
	.st3{fill:#D8D8D8;}
	.st4{font-family:'GrenadineMVB-ExBd';}
	.st5{font-size:84.7583px;}
</style>
<g id="a">
</g>
<g id="b">
	<g id="c">
		<g id="d">
		</g>
	</g>
</g>
<g id="e" class="st0">
	<g>
		<g transform="translate(96.74 977.13) rotate(-.15) scale(1.03 1)">
			<g class="st1">
				<path class="st2" d="M258.4-814.1l-25.6-37.5l-24.3,37.4l-54.1-4.7l46.4-65.6L155-948.2l56.5-8.3l27.4,40l26.3-39.6l51,4.9
					L269.8-885l47.1,64.9L258.4-814.1z"/>
			</g>
		</g>
		<path class="st3" d="M363.2,157l-28.7-38.5L307.3,156l-41.2-3.4l43.9-58l-44.4-63l43.1-6.1l31.3,43.7l30.3-43.3l38.9,3.5
			l-46.5,64.8l45.1,58.3L363.2,157L363.2,157z"/>
	</g>
</g>
<text transform="matrix(1 0 0 1 146.6833 118.7226)" class="st4 st5">LOSER!!</text>
</svg>
