<?xml version="1.0" encoding="UTF-8"?><svg xmlns="http://www.w3.org/2000/svg" viewBox="0 0 740.73 1408.56"><defs><style>.d{fill:#d8d8d8;}.e{fill:#565656;font-family:GrenadineMVB-ExBd, Grenadine MVB;font-size:610.43px;}</style></defs><g id="a"/><g id="b"><g id="c"><g><path d="M164.09,135.49l1.73,92.16-82.91,1.16-1.73-88.69L0,12.13,82.33,2.02l41.89,69.91L167.56,2.02l77.13,6.93-80.6,126.54Z"/><path d="M349.85,232.27c-73.38,0-119.6-47.09-119.6-117.87C230.25,49.11,279.65,0,353.32,0s121.05,45.65,121.05,112.38c0,72.8-43.91,119.89-124.51,119.89Zm2.02-163.8c-28.89,0-47.38,19.93-47.38,48.25s18.49,48.25,47.09,48.25,47.09-20.8,47.09-48.53-18.78-47.96-46.8-47.96Z"/><path d="M739,118.16c-1.16,67.6-36.98,112.96-116.71,112.96s-116.71-42.18-117.58-114.98l-1.44-110.94,80.31-1.44,1.16,106.02c.29,30.04,11.84,45.65,36.11,45.65,26.87,0,39.29-15.31,39.58-43.91l.58-108.62,79.73,1.16-1.73,114.11Z"/></g><g><path d="M177.75,1404.54l-109.92-1.12,.67-174.03,62.33-.67-.89,127.34,49.15,.67-1.34,47.81Z"/><path d="M277.84,1406.33c-56.74,0-92.49-36.42-92.49-91.15,0-50.49,38.2-88.47,95.17-88.47s93.61,35.3,93.61,86.9c0,56.3-33.96,92.71-96.29,92.71Zm1.56-126.67c-22.34,0-36.64,15.41-36.64,37.31s14.3,37.31,36.42,37.31,36.41-16.09,36.41-37.53-14.52-37.08-36.19-37.08Z"/><path d="M511.3,1291.5c-9.61-14.52-27.03-21.89-42.67-21.89-9.83,0-15.86,6.03-15.86,13.85,0,25.47,93.16,.22,93.16,71.04,0,31.95-22.79,54.06-77.3,54.06-37.31,0-65.68-14.75-81.09-41.55l34.4-22.34c11.17,16.09,30.38,25.47,48.26,25.47,9.83,0,16.31-6.03,16.31-14.07,0-26.59-92.26-4.25-92.26-71.71,0-32.84,25.24-55.4,74.62-55.4,36.19,0,65.23,17.43,78.64,45.13l-36.19,17.43Z"/><path d="M577.87,1404.54l-4.69-172.02,128.46-2.9,1.12,44.68-67.92,1.12,1.12,24.8,63-1.12,.45,37.53-61.88,.89,1.12,25.69,64.56-2.23,.67,40.44-126,3.13Z"/></g><g><text class="e" transform="translate(96.74 977.13) rotate(-.15) scale(1.03 1)"><tspan x="0" y="0">X</tspan></text><path class="d" d="M449.95,960.94l-98.46-131.78-92.91,128.42-141.54-11.64,150.76-198.9-152.49-215.99,147.69-20.87,107.25,149.44,103.98-148.48,133.39,12.11-159.46,222.42,154.76,200.17-152.98,15.09Z"/></g></g></g></svg>