<svg width="894" height="1063" xmlns="http://www.w3.org/2000/svg" xmlns:xlink="http://www.w3.org/1999/xlink" xml:space="preserve" overflow="hidden"><defs><clipPath id="clip0"><rect x="223" y="90" width="894" height="1063"/></clipPath></defs><g clip-path="url(#clip0)" transform="translate(-223 -90)"><path d="M479 304.7 657.5 90.0001 836 304.7 751.357 304.7 751.357 550 563.643 550 563.643 304.7Z" fill="#FFFFFF" fill-rule="evenodd"/><rect x="479" y="647" width="386" height="96.9999" fill="#FFFFFF"/><path d="M759.798 1032.09 759.798 1081.77 780.03 1081.77C786.04 1081.77 790.769 1079.57 794.214 1075.17 797.659 1070.78 799.382 1064.77 799.382 1057.15 799.382 1049.23 797.659 1043.08 794.214 1038.68 790.769 1034.28 786.04 1032.09 780.03 1032.09ZM536.092 996.25 587.991 996.25 587.991 1076.27C587.991 1085.65 590.153 1092.98 594.478 1098.26 598.803 1103.53 604.777 1106.17 612.401 1106.17 620.025 1106.17 625.999 1103.53 630.324 1098.26 634.649 1092.98 636.812 1085.65 636.812 1076.27L636.812 996.25 688.711 996.25 688.711 1076.27C688.711 1092.25 685.669 1105.99 679.585 1117.49 673.5 1129 664.74 1137.79 653.305 1143.88 641.87 1149.96 628.235 1153 612.401 1153 596.568 1153 582.933 1149.96 571.498 1143.88 560.062 1137.79 551.302 1129 545.218 1117.49 539.134 1105.99 536.092 1092.25 536.092 1076.27ZM707.898 995.591 798.502 995.591C815.069 995.591 828.007 1001.01 837.317 1011.86 846.626 1022.7 851.281 1037.8 851.281 1057.15 851.281 1076.35 846.626 1091.33 837.317 1102.11 828.007 1112.88 815.069 1118.26 798.502 1118.26L759.798 1118.26 759.798 1149.48 707.898 1149.48ZM929.662 877.615C923.944 877.615 919.463 879.594 916.22 883.55 912.976 887.508 911.354 893.004 911.354 900.039L911.354 912.57 947.969 912.57 947.969 900.039C947.969 893.004 946.348 887.508 943.104 883.55 939.86 879.594 935.379 877.615 929.662 877.615ZM999.566 844.638 1038.49 844.638 1058.28 888.827 1078.08 844.638 1117 844.638 1077.75 919 1077.75 960.057 1038.82 960.057 1038.82 919ZM693.75 844.638 732.675 844.638 732.84 910.756C732.84 915.813 733.884 919.797 735.974 922.71 738.063 925.624 740.977 927.08 744.715 927.08 748.454 927.08 751.395 925.651 753.539 922.793 755.683 919.935 756.756 915.923 756.756 910.756L756.756 844.638 795.515 844.638 795.515 910.756C795.515 915.923 796.587 919.935 798.731 922.793 800.875 925.651 803.872 927.08 807.72 927.08 811.568 927.08 814.565 925.651 816.709 922.793 818.853 919.935 819.925 915.923 819.925 910.756L819.925 844.638 858.685 844.638 858.685 904.491C858.685 916.582 856.651 926.998 852.582 935.736 848.514 944.475 842.659 951.153 835.017 955.77 827.375 960.387 818.276 962.695 807.72 962.695 800.023 962.695 793.371 960.799 787.763 957.006 782.155 953.214 778.307 948.735 776.218 943.568 774.239 948.735 770.445 953.214 764.837 957.006 759.23 960.799 752.522 962.695 744.715 962.695 734.159 962.695 725.061 960.387 717.418 955.77 709.777 951.153 703.921 944.475 699.853 935.736 695.785 926.998 693.75 916.582 693.75 904.491ZM477.274 844.638 516.198 844.638 516.198 960.057 477.274 960.057ZM350.137 844.638 389.061 844.638 389.061 887.838 424.522 887.838 424.522 844.638 463.447 844.638 463.447 960.057 424.522 960.057 424.522 916.857 389.061 916.857 389.061 960.057 350.137 960.057ZM223 844.638 336.31 844.638 336.31 873.657 299.2 873.657 299.2 960.057 260.275 960.057 260.275 873.657 223 873.657ZM929.662 842.495C941.537 842.495 951.763 844.775 960.34 849.337 968.916 853.899 975.486 860.494 980.049 869.123 984.612 877.752 986.894 888.057 986.894 900.039L986.894 960.057 947.969 960.057 947.969 941.59 911.354 941.59 911.354 960.057 872.429 960.057 872.429 900.039C872.429 888.057 874.711 877.752 879.274 869.123 883.837 860.494 890.407 853.899 898.984 849.337 907.561 844.775 917.786 842.495 929.662 842.495ZM584.069 842C601.662 842 615.379 845.957 625.22 853.871 635.061 861.786 639.982 872.833 639.982 887.013L601.057 887.013C601.057 881.517 599.49 877.202 596.357 874.07 593.223 870.937 588.852 869.37 583.244 869.37 576.977 869.37 572.496 870.277 569.802 872.091 567.108 873.905 565.761 876.241 565.761 879.099 565.761 881.847 566.971 883.99 569.39 885.529 571.809 887.068 574.86 888.195 578.544 888.909 582.227 889.624 587.313 890.311 593.8 890.97 603.696 892.069 611.778 893.389 618.045 894.927 624.313 896.466 629.728 899.297 634.292 903.419 638.855 907.541 641.136 913.395 641.136 920.979 641.136 934.06 636.161 944.283 626.21 951.648 616.259 959.013 602.432 962.695 584.729 962.695 567.136 962.695 553.419 959.013 543.578 951.648 533.737 944.283 528.816 934.06 528.816 920.979L567.74 920.979C567.74 925.486 569.225 929.003 572.194 931.532 575.162 934.06 579.341 935.324 584.729 935.324 590.227 935.324 594.515 934.445 597.594 932.686 600.672 930.927 602.212 928.509 602.212 925.431 602.212 922.353 600.425 920.292 596.851 919.248 593.278 918.204 587.533 917.352 579.616 916.692 569.39 915.813 560.896 914.521 554.133 912.817 547.371 911.114 541.461 907.514 536.403 902.018 531.345 896.521 528.816 888.387 528.816 877.615 528.816 866.403 533.681 857.664 543.413 851.398 553.144 845.133 566.696 842 584.069 842Z" fill="#FFFFFF" fill-rule="evenodd"/></g></svg>