<?xml version="1.0" encoding="UTF-8"?><svg xmlns="http://www.w3.org/2000/svg" viewBox="0 0 601.78 92.63"><g id="a"/><g id="b"><g id="c"><g id="d"><g id="e"><g><path d="M120.62,90.43l-33.75,1.04-13.14-38.82-15.2,38.13-33.52-.23L0,2.19l33.06-.92,12.9,46.2L65.32,.92h18.66l17.86,46.89L116.81,0l31.91,2.42-28.11,88.01Z"/><path d="M190.19,91.35l-30.99-.58-.35-89.17,32.03-.11-.69,89.86h0Z"/><path d="M301.23,90.43l-29.61,.69-30.98-43.78,1.62,43.54-30.53,.92-2.07-89.51,29.83-.46,31.45,44.47,.11-43.54,31.22-.58-1.04,88.24Z"/><path d="M411.71,90.43l-29.61,.69-30.98-43.78,1.62,43.54-30.53,.92-2.07-89.51,29.83-.46,31.45,44.47,.11-43.54,31.22-.58-1.04,88.24Z"/><path d="M433.36,91.7l-2.42-88.7,66.24-1.5,.58,23.04-35.02,.58,.58,12.79,32.49-.58,.23,19.35-31.91,.46,.58,13.25,33.29-1.15,.35,20.85-64.98,1.62v-.02Z"/><path d="M566.41,92.62l-16.13-27.41c-2.31,0-4.95-.11-6.79-.23l.35,26.61-31.22-.35-1.73-89.74c10.72-.46,26.96-.92,43.43-.92,25.81,0,40.32,12.1,40.32,32.83,0,13.02-6.22,20.39-14.51,24.77l21.66,30.41-35.37,4.04h0Zm-13.59-68.32c-3.34,0-7.72,.23-10.72,.35l.69,20.51c3.34,.11,7.26,.23,10.83,.11,7.26-.23,11.17-3.57,11.17-10.25s-4.38-10.72-11.98-10.72h0Z"/></g></g></g></g></g></svg>