<?xml version="1.0" encoding="UTF-8"?><svg xmlns="http://www.w3.org/2000/svg" viewBox="0 0 800.76 1348.25"><defs><style>.d{fill:#d8d8d8;}.e{fill:#565656;}</style></defs><g id="a"/><g id="b"><g id="c"><g><path d="M160.5,120.33l-44.91,1.38-17.48-51.66-20.23,50.74-44.61-.31L0,2.91,43.99,1.69l17.17,61.47L86.92,1.23h24.83l23.76,62.39L155.44,0l42.46,3.22-37.4,117.11Z"/><path d="M253.08,121.56l-41.24-.77-.46-118.65,42.62-.15-.92,119.57Z"/><path d="M400.84,120.33l-39.4,.92-41.23-58.25,2.15,57.94-40.62,1.23-2.76-119.11,39.7-.61,41.85,59.17,.15-57.94,41.54-.77-1.38,117.42Z"/><path d="M547.84,120.33l-39.4,.92-41.23-58.25,2.15,57.94-40.62,1.23-2.76-119.11,39.7-.61,41.85,59.17,.15-57.94,41.54-.77-1.38,117.42Z"/><path d="M576.65,122.02l-3.22-118.03,88.14-1.99,.77,30.66-46.6,.77,.77,17.02,43.23-.77,.31,25.75-42.46,.61,.77,17.63,44.3-1.53,.46,27.75-86.46,2.15Z"/><path d="M753.7,123.25l-21.46-36.48c-3.07,0-6.59-.15-9.04-.31l.46,35.41-41.54-.46-2.3-119.41c14.26-.61,35.87-1.23,57.79-1.23,34.34,0,53.65,16.1,53.65,43.69,0,17.32-8.28,27.13-19.31,32.96l28.82,40.47-47.06,5.37Zm-18.09-90.9c-4.45,0-10.27,.31-14.26,.46l.92,27.29c4.45,.15,9.66,.31,14.41,.15,9.66-.31,14.87-4.75,14.87-13.64s-5.83-14.26-15.94-14.26Z"/></g><g><path d="M160.5,1345.33l-44.91,1.38-17.48-51.66-20.23,50.74-44.61-.31L0,1227.91l43.99-1.23,17.17,61.47,25.75-61.93h24.83l23.76,62.39,19.93-63.62,42.46,3.22-37.4,117.11Z"/><path d="M253.08,1346.56l-41.24-.77-.46-118.65,42.62-.15-.92,119.57Z"/><path d="M400.84,1345.33l-39.4,.92-41.23-58.25,2.15,57.94-40.62,1.23-2.76-119.11,39.7-.61,41.85,59.17,.15-57.94,41.54-.77-1.38,117.42Z"/><path d="M547.84,1345.33l-39.4,.92-41.23-58.25,2.15,57.94-40.62,1.23-2.76-119.11,39.7-.61,41.85,59.17,.15-57.94,41.54-.77-1.38,117.42Z"/><path d="M576.65,1347.02l-3.22-118.03,88.14-1.99,.77,30.66-46.6,.77,.77,17.02,43.23-.77,.31,25.75-42.46,.61,.77,17.63,44.3-1.53,.46,27.75-86.46,2.15Z"/><path d="M753.7,1348.25l-21.46-36.48c-3.07,0-6.59-.15-9.04-.31l.46,35.41-41.54-.46-2.3-119.41c14.26-.61,35.87-1.23,57.79-1.23,34.34,0,53.65,16.1,53.65,43.69,0,17.32-8.28,27.13-19.31,32.96l28.82,40.47-47.06,5.37Zm-18.09-90.9c-4.45,0-10.27,.31-14.26,.46l.92,27.29c4.45,.15,9.66,.31,14.41,.15,9.66-.31,14.87-4.75,14.87-13.64s-5.83-14.26-15.94-14.26Z"/></g><path class="e" d="M61.13,688.95l189.36,260.71c4.1,5.65,12.17,6.58,17.45,2.01l496.72-429.98-125.73-128.47-351.61,375.5-211.1-98.1c-11.47-5.33-22.52,8.09-15.09,18.33Z"/><path class="d" d="M80.66,698.85l177.5,234.96c2.43,3.26,7.12,3.78,10.21,1.12l477.44-411.04c3.14-2.7,3.26-7.52,.27-10.39l-98.32-92.78c-2.81-2.69-7.28-2.58-9.95,.25l-340.62,360.14c-2.1,2.22-5.41,2.83-8.16,1.49l-201.37-97.75c-10.48-4.87-13.79,4.65-7,14Z"/></g></g></svg>