<svg width="1602" height="1405" xmlns="http://www.w3.org/2000/svg" xmlns:xlink="http://www.w3.org/1999/xlink" xml:space="preserve" overflow="hidden"><defs><clipPath id="clip0"><rect x="2301" y="634" width="1602" height="1405"/></clipPath></defs><g clip-path="url(#clip0)" transform="translate(-2301 -634)"><path d="M3008.17 999.408 3084 1090.63 2999.3 1090.63 2999.3 1336 2811.47 1336 2811.47 1090.63 2726.77 1090.63 2749.34 1063.48 2757.47 1066.85C2766.58 1069.16 2776.41 1070.31 2786.97 1070.31 2802.58 1070.31 2816 1066.52 2827.22 1058.93 2838.44 1051.33 2846.03 1042.37 2849.99 1032.03 2854.17 1042.37 2861.87 1051.33 2873.09 1058.93 2884.31 1066.52 2897.62 1070.31 2913.02 1070.31 2934.14 1070.31 2952.34 1065.69 2967.63 1056.45 2982.92 1047.21 2994.64 1033.84 3002.78 1016.35ZM2905.38 875.754 2937.44 914.316 2937.44 966.348C2937.44 976.69 2935.29 984.721 2931 990.441 2926.71 996.162 2920.72 999.022 2913.02 999.022 2905.32 999.022 2899.33 996.162 2895.04 990.441 2890.75 984.721 2888.6 976.69 2888.6 966.348L2888.6 895.945ZM2937.44 834 3014.99 834 3014.99 953.806C3014.99 965.908 3013.97 977.171 3011.93 987.595L3008.17 999.408 2937.44 914.316ZM2685 834 2762.88 834 2763.21 966.348C2763.21 976.469 2765.3 984.445 2769.48 990.276 2773.66 996.107 2779.49 999.022 2786.97 999.022 2794.45 999.022 2800.33 996.162 2804.62 990.441 2808.91 984.721 2811.05 976.69 2811.05 966.348L2811.05 834 2888.6 834 2888.6 895.945 2749.34 1063.48 2732.35 1056.45C2717.06 1047.21 2705.35 1033.84 2697.21 1016.35 2689.07 998.858 2685 978.01 2685 953.806Z" fill="#FFFFFF" fill-rule="evenodd"/><rect x="2727" y="1436" width="386" height="97.0002" fill="#FFFFFF"/><text fill="#FFFFFF" font-family="Nura Black,Nura Black_MSFontService,sans-serif" font-weight="900" font-size="633" transform="matrix(1 0 0 1 3059.61 1533)">P<tspan font-size="330" x="11.9712" y="-469">AY</tspan></text><text fill="#FFFFFF" font-family="Nura Black,Nura Black_MSFontService,sans-serif" font-weight="900" font-size="275" transform="matrix(-1.83697e-16 -1 1 -1.83697e-16 2658.72 1542)">THIS</text></g></svg>